<?xml version="1.0" encoding="UTF-8" standalone="no"?>
<!-- Created with Inkscape (http://www.inkscape.org/) -->

<svg
   xmlns:dc="http://purl.org/dc/elements/1.1/"
   xmlns:cc="http://creativecommons.org/ns#"
   xmlns:rdf="http://www.w3.org/1999/02/22-rdf-syntax-ns#"
   xmlns:svg="http://www.w3.org/2000/svg"
   xmlns="http://www.w3.org/2000/svg"
   xmlns:xlink="http://www.w3.org/1999/xlink"
   xmlns:sodipodi="http://sodipodi.sourceforge.net/DTD/sodipodi-0.dtd"
   xmlns:inkscape="http://www.inkscape.org/namespaces/inkscape"
   width="80"
   height="80"
   viewBox="0 0 21.166666 21.166667"
   version="1.1"
   id="svg8"
   inkscape:version="0.92.1 r15371"
   sodipodi:docname="btn-restart.svg">
  <defs
     id="defs2">
    <linearGradient
       id="2">
      <stop
         stop-color="#f0ff80"
         id="F" />
      <stop
         stop-color="#8bb300"
         offset="1"
         id="G" />
    </linearGradient>
    <linearGradient
       id="3">
      <stop
         id="H" />
      <stop
         stop-opacity="0"
         offset="1"
         id="I" />
    </linearGradient>
    <linearGradient
       id="4">
      <stop
         stop-color="#eee"
         id="J" />
      <stop
         stop-color="#dcdcdc"
         offset="1"
         id="K" />
    </linearGradient>
    <radialGradient
       gradientTransform="matrix(0.26458333,0,0,0.02286523,-10.041352,288.70249)"
       gradientUnits="userSpaceOnUse"
       xlink:href="#3"
       id="5"
       r="53.91"
       cy="117.35"
       cx="63.894" />
    <radialGradient
       gradientTransform="matrix(-1.404511,1.1888571,-1,-1.1813958,199.73811,11.750541)"
       gradientUnits="userSpaceOnUse"
       xlink:href="#4"
       id="6"
       r="15.03"
       cy="51.39"
       cx="60.05" />
    <radialGradient
       gradientTransform="matrix(1.5330966,-3.1358239e-8,2.404893e-8,1.1240308,-33.828167,2.9909361)"
       gradientUnits="userSpaceOnUse"
       xlink:href="#8"
       id="7"
       r="55.27"
       cy="-15.174"
       cx="64.7" />
    <linearGradient
       id="8">
      <stop
         stop-color="#eee"
         id="L" />
      <stop
         stop-opacity="0"
         stop-color="#eee"
         offset="1"
         id="M" />
    </linearGradient>
    <linearGradient
       gradientUnits="userSpaceOnUse"
       xlink:href="#2"
       id="9"
       y2="120.54"
       x2="0"
       y1="8.707"
       gradientTransform="matrix(0.26774174,0,0,0.2716463,-10.950127,258.25789)" />
  </defs>
  <sodipodi:namedview
     id="base"
     pagecolor="#ffffff"
     bordercolor="#666666"
     borderopacity="1.0"
     inkscape:pageopacity="0.0"
     inkscape:pageshadow="2"
     inkscape:zoom="3.959798"
     inkscape:cx="4.7320645"
     inkscape:cy="41.380827"
     inkscape:document-units="px"
     inkscape:current-layer="layer1"
     showgrid="false"
     showguides="true"
     inkscape:guide-bbox="true"
     inkscape:window-width="1639"
     inkscape:window-height="1026"
     inkscape:window-x="41"
     inkscape:window-y="24"
     inkscape:window-maximized="1"
     units="px" />
  <metadata
     id="metadata5">
    <rdf:RDF>
      <cc:Work
         rdf:about="">
        <dc:format>image/svg+xml</dc:format>
        <dc:type
           rdf:resource="http://purl.org/dc/dcmitype/StillImage" />
        <dc:title />
      </cc:Work>
    </rdf:RDF>
  </metadata>
  <g
     inkscape:label="Layer 1"
     inkscape:groupmode="layer"
     id="layer1"
     transform="translate(0,-275.83332)">
    <ellipse
       ry="9.3739071"
       rx="9.373908"
       style="fill:none;stroke:#333333;stroke-width:2.41885161;stroke-miterlimit:4;stroke-dasharray:none"
       cy="286.41666"
       cx="10.583333"
       id="icon-circle"
       inkscape:label="icon-circle" />
    <path
       style="fill:#000080;stroke-width:0.19689547;fill-opacity:1"
       inkscape:connector-curvature="0"
       d="m 8.8946046,281.11299 c -0.03475,5e-4 -0.064247,0.004 -0.095409,0.006 -0.017205,0.002 -0.032516,0.002 -0.054065,0.006 -0.00142,1.4e-4 -0.00161,-1.7e-4 -0.00312,0 -0.012795,0.002 -0.033103,0.005 -0.054065,0.012 -4.58e-4,1.7e-4 -0.028589,0.0119 -0.057244,0.0299 -0.037144,0.0234 -0.066377,0.0528 -0.089051,0.0868 -0.024435,0.0365 -0.039775,0.0767 -0.044526,0.11962 -0.00189,0.0172 -0.00369,0.0312 -0.00312,0.0418 2.139e-4,0.005 0.00284,0.009 0.00312,0.012 8.05e-5,9.5e-4 -8.61e-5,0.002 0,0.003 2.243e-4,0.002 -7.523e-4,0.002 0,0.006 1.931e-4,9.4e-4 -6.6e-6,0.006 0,0.006 3.8e-6,2e-5 0.00312,0.0119 0.00312,0.012 0,0 0.00293,0.003 0.00312,0.003 0.00189,0.008 0.00114,0.0183 0.00322,0.0239 0.00151,0.005 0.00473,0.009 0.00634,0.012 8.025e-4,0.002 0.00218,0.004 0.00312,0.006 0.00151,0.009 -0.00114,0.0116 0.00634,0.0299 0.013438,0.0326 0.028542,0.0576 0.041346,0.0838 0.03016,0.0614 0.07319,0.14132 0.1240299,0.23627 0.1014065,0.18937 0.2344219,0.43264 0.3720914,0.6789 0.1375995,0.24613 0.2781572,0.49603 0.3848112,0.68489 0.053327,0.0944 0.098434,0.17394 0.1303912,0.23028 0.015984,0.0282 0.02946,0.0504 0.038166,0.0658 0.00871,0.0153 0.019239,0.0356 0.012719,0.024 -0.00208,-0.004 0.286532,0.51152 0.5629067,1.0019 0.137831,0.24455 0.275189,0.49537 0.384812,0.68189 0.0553,0.0941 0.104344,0.16835 0.139931,0.22431 0.01888,0.0297 0.03431,0.0551 0.05088,0.0778 -0.01218,-0.0167 0.0095,0.0148 0.03181,0.0389 3.36e-4,3.6e-4 0.0097,0.009 0.01272,0.012 0.0028,0.005 0.0051,0.005 0.0063,0.006 0.0052,0.007 0.0074,0.01 0.0095,0.012 0.005,0.005 0.0066,0.004 0.01272,0.009 6.52e-4,5e-4 -7.02e-4,0.003 0,0.003 0.01084,0.009 0.02711,0.0196 0.0477,0.0299 0.0349,0.0174 0.08038,0.0311 0.13039,0.0328 0.0532,0.002 0.102667,-0.007 0.149473,-0.0299 0.02375,-0.0119 0.03876,-0.0254 0.05088,-0.0359 0.0061,-0.006 0.01005,-0.008 0.01908,-0.018 0.0056,-0.005 0.01244,-0.009 0.01908,-0.0149 0.02031,-0.0207 0.03495,-0.039 0.04453,-0.0508 0.02437,-0.0304 0.04606,-0.0624 0.07632,-0.10468 0.06273,-0.0877 0.145598,-0.20765 0.23534,-0.34095 0.132176,-0.19631 0.28207,-0.42791 0.426155,-0.646 0.853735,0.47049 1.437478,1.31744 1.437478,2.31484 0,1.50674 -1.291848,2.72161 -2.894038,2.72161 -1.6021905,0 -2.8940382,-1.21488 -2.8940382,-2.72161 -1e-6,-0.62121 0.2279612,-1.18615 0.6042496,-1.64789 0.043844,-0.0539 0.072935,-0.12403 0.060424,-0.20637 -0.011678,-0.0769 -0.054472,-0.14179 -0.1176704,-0.18543 -0.3654708,-0.25591 -0.5519518,-0.38299 -0.642412,-0.44563 -0.045869,-0.0318 -0.068591,-0.0485 -0.085871,-0.0598 0.014649,0.01 -0.00748,-0.004 -0.025447,-0.015 -0.0053,-0.004 -7.013e-4,-0.003 -0.00634,-0.006 -6.019e-4,-3.3e-4 -0.00256,3.2e-4 -0.00312,0 -6.511e-4,-3.4e-4 -0.00246,3.3e-4 -0.00312,0 -8.517e-4,-4.3e-4 -0.00227,-0.003 -0.00312,-0.003 -0.00114,-9.5e-4 0.00104,-0.002 0,-0.003 -0.012918,-0.0103 -0.030576,-0.0227 -0.054065,-0.0389 -0.089713,-0.0618 -0.2721622,-0.18848 -0.6360526,-0.44263 -0.1027541,-0.071 -0.2290495,-0.0482 -0.3275668,0.0149 a 0.12253906,0.11523733 0 0 0 -0.079512,0.0449 0.12253906,0.11523733 0 0 0 -0.00312,0 c -0.6688689,0.8334 -1.0844695,1.86511 -1.0844695,2.99375 0,2.75014 2.3770951,4.9856 5.3014959,4.9856 2.924394,0 5.307858,-2.23508 5.307858,-4.9856 0,-1.80549 -1.047282,-3.35867 -2.579193,-4.22595 0.111255,-0.16482 0.225595,-0.33453 0.311666,-0.46357 0.06362,-0.0954 0.118369,-0.17419 0.159013,-0.23925 0.02098,-0.0336 0.03553,-0.0642 0.0477,-0.0868 -7.01e-4,0.002 0.0027,-0.009 0.0031,-0.009 4e-6,-10e-6 9.47e-4,-0.004 0.0031,-0.006 9.02e-4,-0.002 0.0049,-0.004 0.0063,-0.006 1.1e-5,-10e-6 0.0023,-0.005 0.0031,-0.006 0.0018,-0.003 0.0025,-0.005 0.0031,-0.006 0.0014,-0.003 0.0025,-0.005 0.0031,-0.006 0.0015,-0.004 0.0021,-0.007 0.0031,-0.009 8.03e-4,-0.002 0.0024,-0.004 0.0031,-0.006 0.0023,-0.006 0.0041,-0.0159 0.0063,-0.024 3.46e-4,-9.4e-4 0.0028,-0.002 0.0031,-0.003 0.0017,-0.005 0.0017,-0.009 0.0031,-0.0149 a 0.12253906,0.11523733 0 0 0 0,-0.003 c 5.51e-4,-0.002 -5.02e-4,-0.007 0,-0.009 0.0028,-0.0129 0.0099,-0.0284 0.0095,-0.0479 -6.52e-4,-0.04 -0.01395,-0.0825 -0.03817,-0.12562 -0.02452,-0.0436 -0.05414,-0.0774 -0.09223,-0.10168 -0.01714,-0.0109 -0.03247,-0.019 -0.04453,-0.0239 -0.0018,-5.1e-4 -0.0047,5e-4 -0.0063,0 -0.0033,-0.002 -0.01344,-0.004 -0.01908,-0.006 -0.0096,-0.004 -0.01655,-0.009 -0.03181,-0.012 -0.02045,-0.006 -0.03865,-0.006 -0.05406,-0.006 -0.0037,-5e-4 -0.01155,-0.003 -0.0159,-0.003 -0.0051,2.2e-4 -0.0095,0.003 -0.01272,0.003 0.0013,-1.1e-4 0.0026,-0.003 0.0063,-0.003 -0.02085,-0.004 -0.04149,-0.007 -0.07314,-0.009 -0.07185,-0.007 -0.167229,-0.0118 -0.279863,-0.018 -0.224588,-0.0121 -0.515064,-0.0249 -0.810967,-0.0359 -0.295884,-0.0111 -0.597423,-0.023 -0.823687,-0.0299 -0.112688,-0.004 -0.208263,-0.007 -0.276683,-0.009 -0.03378,-9.5e-4 -0.06065,5e-4 -0.0795,0 -0.0095,-2.6e-4 -0.0174,1.2e-4 -0.02226,0 -0.0024,-7e-5 -0.0051,-0.003 -0.0063,-0.003 -3e-6,0 -0.0062,10e-6 -0.0063,0 -0.0054,-2.1e-4 -0.155165,-0.004 -0.378452,-0.012 -0.22704,-0.009 -0.528165,-0.0232 -0.8236878,-0.0328 -0.2945145,-0.01 -0.5878114,-0.0202 -0.8141468,-0.0239 -0.1140752,-0.002 -0.2099825,-9.5e-4 -0.2798635,0 z m -1.4629213,3.04459 c 0.00568,9.4e-4 0.011385,0.002 0.015899,0.003 0.00473,0.002 0.0089,0.005 0.012719,0.006 -0.00757,-0.004 -0.01694,-0.007 -0.028618,-0.009 z m -0.060424,0.006 c -1.14e-5,10e-6 0.00492,1.6e-4 0.00634,0 -0.00757,0.003 -0.01746,0.004 -0.022258,0.006 0.00672,-0.003 0.015955,-0.006 0.015899,-0.006 z"
       id="E" />
  </g>
</svg>
